<?xml version="1.0" standalone="no"?>
<!DOCTYPE svg PUBLIC "-//W3C//DTD SVG 20010904//EN"
 "http://www.w3.org/TR/2001/REC-SVG-20010904/DTD/svg10.dtd">
<svg version="1.0" xmlns="http://www.w3.org/2000/svg"
 width="512.000000pt" height="512.000000pt" viewBox="0 0 512.000000 512.000000"
 preserveAspectRatio="xMidYMid meet">
<g transform="translate(0.000000,512.000000) scale(0.100000,-0.100000)"
fill="#0ea5e9" stroke="none">
<path d="M1510 4938 c-83 -42 -112 -137 -69 -225 25 -51 -58 0 849 -523 393
-227 821 -474 950 -548 202 -117 241 -136 285 -139 155 -11 235 182 119 288
-16 15 -339 206 -719 424 -379 219 -823 474 -985 568 -330 191 -348 197 -430
155z"/>
<path d="M3480 4953 c-14 -5 -680 -388 -758 -435 l-33 -20 148 -85 c82 -46
157 -90 169 -98 18 -12 39 -2 220 102 434 251 430 248 453 296 42 88 14 180
-68 224 -42 22 -97 28 -131 16z"/>
<path d="M1790 3981 c-157 -91 -296 -173 -308 -182 -13 -9 -32 -34 -42 -55
-59 -115 28 -250 156 -241 45 3 94 28 437 227 213 122 387 226 387 230 0 11
-315 190 -331 189 -8 -1 -142 -76 -299 -168z"/>
<path d="M2513 3859 l-33 -21 0 -256 0 -257 80 0 80 0 0 257 0 256 -34 21
c-41 26 -53 26 -93 0z"/>
<path d="M1360 3134 l0 -336 36 32 c20 17 56 41 80 53 l44 21 0 237 0 237 -35
12 c-20 7 -56 27 -80 46 l-45 34 0 -336z"/>
<path d="M3720 3440 c-19 -17 -53 -37 -77 -46 l-43 -17 0 -236 0 -237 44 -21
c24 -12 60 -36 80 -53 l36 -32 0 336 c0 185 -1 336 -2 336 -2 -1 -19 -14 -38
-30z"/>
<path d="M2458 3185 c-128 -47 -208 -161 -208 -296 0 -116 61 -218 161 -274
49 -27 62 -30 149 -30 86 0 100 3 148 29 101 56 153 139 160 256 5 100 -21
172 -88 240 -82 81 -218 113 -322 75z"/>
<path d="M1529 2767 c-89 -47 -129 -169 -84 -257 9 -19 134 -152 276 -295 217
-218 262 -270 286 -320 l28 -60 5 -775 c4 -695 7 -778 21 -805 44 -79 91 -95
274 -95 l145 0 0 430 0 431 25 24 c32 33 78 33 110 0 l25 -24 0 -431 0 -430
145 0 c183 0 230 16 274 95 14 27 17 110 21 805 l5 775 29 60 c24 49 75 107
286 320 142 143 265 276 275 295 10 20 18 57 18 87 0 137 -143 231 -270 178
-22 -10 -116 -94 -242 -218 -201 -199 -208 -204 -281 -231 -200 -73 -490 -71
-696 5 -53 20 -80 43 -265 225 -126 125 -220 209 -242 219 -53 22 -116 19
-168 -8z"/>
</g>
</svg>
